<svg xmlns="http://www.w3.org/2000/svg" viewBox="0 0 186.53 49.13" height="44"><defs><style>.cls-1{fill:#ff9b0a;}.cls-2,.cls-3{fill:#fff;}.cls-3{font-size:23.25px;font-family:Roboto-Medium, Roboto;}.cls-4{letter-spacing:0.01em;}.cls-5{fill:#f70000;}.cls-6{letter-spacing:-0.01em;}</style></defs><title>Ресурс 2</title><g id="Слой_2" data-name="Слой 2"><g id="Слой_1-2" data-name="Слой 1"><path class="cls-1" d="M59.15,16a2.26,2.26,0,0,0-1.56-1.52A13.39,13.39,0,0,0,53.14,14H47.8L56.49,0,50.08,0,0,41.09l8.32-.27L27,25.4h7.91l-4,6.12H34.5L25.92,45h7.61L41.3,32.8h2a13,13,0,0,0,4.5-.74,9.9,9.9,0,0,0,3.46-2.12,23.7,23.7,0,0,0,3.33-4.39l1.72-2.75a34.42,34.42,0,0,0,2.43-4.36A4,4,0,0,0,59.15,16Zm-26.8,4.17,13-10.77L38.65,20.21ZM50.51,22l-1.62,2.58A8.83,8.83,0,0,1,47,26.86a2.94,2.94,0,0,1-1.8.55c-.16,0-.34,0-.55,0l5-8c1,0,1.54.16,1.65.49S51.18,20.89,50.51,22Z"/><path class="cls-2" d="M23.79,40.89l3-2q.55.35,1.14.66l1.65-2.64a14.72,14.72,0,0,1-6.49-6.68l-2.46,2c.21.39.43.77.67,1.14l-2,3a.19.19,0,0,0,0,.25l4.16,4.16A.21.21,0,0,0,23.79,40.89Z"/><path class="cls-2" d="M21.9,21.48A14.61,14.61,0,0,1,36.29,9.34h.4l3.45-2.84-.7-3.39a.21.21,0,0,0-.2-.16H33.35a.2.2,0,0,0-.2.16l-.74,3.54A17.69,17.69,0,0,0,26.82,9l-3-2a.2.2,0,0,0-.26,0l-4.16,4.17a.18.18,0,0,0,0,.25l2,3A17.46,17.46,0,0,0,19,20.06l-3.54.74a.19.19,0,0,0-.16.2v5.89h0Z"/><path class="cls-2" d="M51.26,33.42A17.38,17.38,0,0,0,52.9,30.1c-.25.28-.49.53-.73.76a11,11,0,0,1-3.89,2.39q-.49.18-1,.33a14.61,14.61,0,0,1-7.85,4.63L35.2,44.93h4a.21.21,0,0,0,.2-.16l.73-3.54a17.65,17.65,0,0,0,5.6-2.32l3,2a.21.21,0,0,0,.26,0l4.16-4.16a.2.2,0,0,0,0-.25Z"/><text class="cls-3" transform="translate(64.49 20.29) scale(1.31 1)"><tspan class="cls-4">А</tspan><tspan x="14.95" y="0">ЛЬФА</tspan><tspan class="cls-5"><tspan x="0" y="22.54">РЕМО</tspan><tspan class="cls-6" x="63.81" y="22.54">Н</tspan><tspan x="79.86" y="22.54">Т</tspan></tspan></text></g></g></svg>